<?xml version="1.0" encoding="utf-8"?>
<!-- Generator: Adobe Illustrator 25.0.0, SVG Export Plug-In . SVG Version: 6.00 Build 0)  -->
<svg version="1.1" id="Layer_1" xmlns="http://www.w3.org/2000/svg" xmlns:xlink="http://www.w3.org/1999/xlink" x="0px" y="0px"
	 viewBox="0 0 130 50" style="enable-background:new 0 0 130 50;" xml:space="preserve">
<style type="text/css">
	.st0{fill:url(#SVGID_1_);}
	.st1{fill:url(#SVGID_2_);}
	.st2{fill:none;}
	.st3{fill:url(#SVGID_3_);}
	.st4{fill:url(#SVGID_4_);}
	.st5{fill:url(#SVGID_5_);}
	.st6{fill:url(#SVGID_6_);}
	.st7{fill:#624CF5;}
	.st8{font-family:'FuturaBT-Medium';}
	.st9{font-size:24.2651px;}
</style>
<g>
	<g>
		<linearGradient id="SVGID_1_" gradientUnits="userSpaceOnUse" x1="31.6929" y1="20.2687" x2="45.7613" y2="5.4909">
			<stop  offset="6.490977e-08" style="stop-color:#65FBFE"/>
			<stop  offset="1" style="stop-color:#2B5CDB"/>
		</linearGradient>
		<path class="st0" d="M52.51,10.77l-19,9.78l-3.72-2.19l12.89-6.8c5.05-2.68-3.76-7.58-6.1-8.79L52.51,10.77z"/>
		<linearGradient id="SVGID_2_" gradientUnits="userSpaceOnUse" x1="40.5838" y1="19.1803" x2="41.4114" y2="45.1892">
			<stop  offset="0" style="stop-color:#2B5CDB"/>
			<stop  offset="1" style="stop-color:#65FBFE"/>
		</linearGradient>
		<path class="st1" d="M52.84,36.09L29.77,47.5l0.02-29.14l3.72,2.19V39.7c0,0,0.47,3.31,4.08,2.31L52.84,36.09z"/>
		<path class="st2" d="M4.55,6.8"/>
		<path class="st2" d="M36.03,2.5c0,0,0.01,0,0.02,0.01c0.03,0.01,0.08,0.04,0.15,0.07c0.05,0.03,0.11,0.06,0.18,0.09
			c0.03,0.01,0.06,0.03,0.09,0.04c0.03,0.02,0.07,0.03,0.1,0.05"/>
		<linearGradient id="SVGID_3_" gradientUnits="userSpaceOnUse" x1="4.5451" y1="19.3196" x2="27.4215" y2="19.3196">
			<stop  offset="6.490977e-08" style="stop-color:#65FBFE"/>
			<stop  offset="1" style="stop-color:#2B5CDB"/>
		</linearGradient>
		<path class="st3" d="M27.42,18.48v3.98l-16.97-8.53c0,0-3.84-2.3-4.14,2.84L4.55,31.84V6.8L27.42,18.48z"/>
		<linearGradient id="SVGID_4_" gradientUnits="userSpaceOnUse" x1="16.5218" y1="6.1643" x2="32.6591" y2="7.4056">
			<stop  offset="0" style="stop-color:#4F009A"/>
			<stop  offset="1" style="stop-color:#F93798"/>
		</linearGradient>
		<path class="st4" d="M22.37,10.48c0,0-4.39-2.48-1.26-4.68c0,0,2.95-2.73,9.11-1.26c0,0,2.39,0.84,3.24,2.64
			c0,0,0.11-3.81-6.89-4.1c0,0-7.38-0.16-7.63,4.15C18.93,7.22,18.73,9.2,22.37,10.48z"/>
		<linearGradient id="SVGID_5_" gradientUnits="userSpaceOnUse" x1="20.1222" y1="39.8679" x2="11.4328" y2="26.0359">
			<stop  offset="0" style="stop-color:#4F009A"/>
			<stop  offset="1" style="stop-color:#F93798"/>
		</linearGradient>
		<path class="st5" d="M15.04,24.54c0,0-4.11,3.34-0.8,10.58c0,0,2.72,5.35,5.7,0c0,0-2.54,7.39-6.59,1.21
			C13.35,36.33,9.63,27.49,15.04,24.54z"/>
		<linearGradient id="SVGID_6_" gradientUnits="userSpaceOnUse" x1="40.9246" y1="36.7435" x2="48.3726" y2="18.6554">
			<stop  offset="0" style="stop-color:#4F009A"/>
			<stop  offset="0.1503" style="stop-color:#53019A"/>
			<stop  offset="0.304" style="stop-color:#5F059A"/>
			<stop  offset="0.4593" style="stop-color:#740C9A"/>
			<stop  offset="0.6159" style="stop-color:#911599"/>
			<stop  offset="0.7734" style="stop-color:#B62199"/>
			<stop  offset="0.9295" style="stop-color:#E23098"/>
			<stop  offset="1" style="stop-color:#F93798"/>
		</linearGradient>
		<path class="st6" d="M43.29,20.55c0,0,3.64,0.65,3.13,7.71c0,0-0.92,6.68-4.67,5.56c0,0,3.01,3.1,5.32-1.57c0,0,2.19-5.26,0-9.46
			C47.08,22.79,45.86,19.48,43.29,20.55z"/>
	</g>
	<text transform="matrix(1 0 0 1 50.8943 32.8691)" class="st7 st8 st9">NiN.AI</text>
</g>
</svg>
